<?xml version="1.0" encoding="UTF-8"?>
<svg id="Layer_2" data-name="Layer 2" xmlns="http://www.w3.org/2000/svg" viewBox="0 0 434.06 544">
  <defs>
    <style>
      .cls-1 {
        opacity: .29;
      }
    </style>
  </defs>
  <g id="Layer_1-2" data-name="Layer 1">
    <g>
      <path d="M260.49,67.42c-2.05,16.24-8.62,30.51-19.52,42.43-8.19,8.95-18.55,16.08-32.61,22.44l-2.43,1.1c-20.2,9.11-39.29,17.71-51.26,38.5-9,15.63-8.79,34.02.55,49.19l.39.52c1.49,1.69,2.89,2.17,4,2.17.76,0,1.37-.22,1.81-.44l.8,1.15c.14-.18.34-.36.46-.42l-.63-1.11c.88-.68,2.39-2.41,1.09-5.75l-.07-.17c-5.58-12.49-4.1-26.21,4.05-37.65,7.15-10.02,16.79-18.05,28.66-23.84l24.36-11.89c30.74-15.66,49.11-44.74,47.95-75.89l-7.59-.34Z"/>
      <path d="M421.45,533.69c6.56-6.33,10.46-14.82,11.59-25.25,3.21-29.6-1.21-60.37-12.78-88.98-11.04-27.3-28.55-52.63-50.62-73.25-10.38-9.7-21.77-18.96-34.83-28.33l-16.48-11.82c-11.64-8.35-18.52-16.64-20.42-24.65-2.85-11.93,1.01-22.18,4.75-28.67,3.45-5.99,7.56-11.62,11.92-17.59,8.22-11.26,17.54-24.02,24.21-41.84,9.53-25.47,12.2-52.95,7.74-79.45-4.62-27.43-16.7-52.46-34.94-72.4C287.48,15.11,253,0,217.01,0c-31.62,0-61.92,11.53-85.34,32.46-12.2,10.91-22.28,23.71-29.94,38.05-7.65,14.31-12.74,29.84-15.11,46.16-5.19,35.65,1.88,70.46,20.43,100.67,4.16,6.78,8.51,12.71,12.72,18.44,4.78,6.52,9.3,12.68,12.44,18.75,5.06,9.75,6.2,20.19,3.2,29.39-3.95,12.15-18.3,22.15-32.17,31.83l-2.3,1.61c-18.33,12.83-32.57,24.74-44.8,37.48-24.09,25.08-40.69,53.93-49.35,85.76-6.5,23.89-8.35,47.15-5.5,69.14,1.24,9.57,5.71,18.25,12.58,24.43,7.02,6.32,16.26,9.8,26.01,9.8l354.26.04c13.74,0,22.43-5.61,27.31-10.31ZM37.42,521.96c-8.92,0-15.61-6.06-16.77-15.06-2.62-20.26-.5-40.63,4.91-60.54,7.89-29.01,23.23-54.69,43.98-76.29,12.7-13.22,26.57-24.21,41.55-34.69,16.72-11.7,36.24-24.59,42.77-44.65,5.04-15.49,2.85-31.98-4.59-46.33-6.92-13.33-17.4-24.66-25.94-38.57-15.9-25.87-21.79-55.86-17.41-85.98,4.03-27.7,17.3-52.51,37.95-70.97,43.08-38.52,109.96-35.25,149.02,7.45,31.76,34.72,39.24,85.4,22.83,129.3-8.9,23.81-23.67,37.2-34.59,56.16-7.86,13.67-10.78,29.27-7.08,44.75,3.78,15.85,15.93,28.04,29,37.42l16.48,11.82c11.54,8.28,22.24,16.82,32.63,26.53,39.39,36.79,62.42,89.74,56.55,143.78-1.11,10.2-6.54,15.93-17.02,15.93l-354.26-.04Z"/>
      <path class="cls-1" d="M408.7,506.07c5.86-54.04-17.16-106.99-56.55-143.78-10.39-9.7-21.09-18.25-32.63-26.53l-16.48-11.82c-13.07-9.38-25.22-21.57-29-37.42-3.7-15.49-.78-31.09,7.08-44.75,10.91-18.96,25.68-32.35,34.59-56.16,16.41-43.9,8.93-94.58-22.83-129.3-39.06-42.7-105.94-45.97-149.02-7.45-20.65,18.46-33.92,43.27-37.95,70.97-4.38,30.13,1.51,60.11,17.41,85.98,8.55,13.91,19.03,25.24,25.94,38.57,7.45,14.35,9.64,30.84,4.59,46.33-6.53,20.06-26.05,32.95-42.77,44.65-14.98,10.49-28.85,21.47-41.55,34.69-20.75,21.61-36.09,47.28-43.98,76.29-5.42,19.91-7.54,40.28-4.91,60.54,1.17,9,7.85,15.06,16.77,15.06l354.26.04c10.49,0,15.92-5.73,17.02-15.93ZM220.14,143.64l-24.36,11.89c-11.88,5.79-21.52,13.82-28.66,23.84-8.15,11.44-9.63,25.16-4.05,37.65l.07.17c1.3,3.34-.21,5.07-1.09,5.75l.63,1.11c-.11.06-.32.23-.46.42l-.8-1.15c-.43.22-1.05.44-1.81.44-1.12,0-2.52-.48-4-2.17l-.39-.52c-9.34-15.17-9.55-33.56-.55-49.19,11.97-20.79,31.05-29.39,51.26-38.5l2.43-1.1c14.06-6.35,24.42-13.48,32.61-22.44,10.9-11.92,17.47-26.2,19.52-42.43l7.59.34c1.16,31.15-17.21,60.22-47.95,75.89Z"/>
    </g>
  </g>
</svg>